<svg xmlns="http://www.w3.org/2000/svg" width="36.751" height="19.842" viewBox="0 0 36.751 19.842">
  <g id="shipping-fast" transform="translate(-0.259 -7.502)">
    <path id="Path_3" data-name="Path 3" d="M26.99,20.09a1.5,1.5,0,1,0,1.5,1.5A1.5,1.5,0,0,0,26.99,20.09Zm0,2a.5.5,0,1,1,.5-.5A.5.5,0,0,1,26.99,22.091Z" transform="translate(4.902 2.586)" fill="#4b4b4b"/>
    <path id="Path_4" data-name="Path 4" d="M11.9,20.09a1.5,1.5,0,1,0,1.5,1.5A1.5,1.5,0,0,0,11.9,20.09Zm0,2a.5.5,0,1,1,.5-.5A.5.5,0,0,1,11.9,22.091Z" transform="translate(1.806 2.586)" fill="#4b4b4b"/>
    <path id="Path_5" data-name="Path 5" d="M2.571,11.138h9.71a.5.5,0,1,0,0-1H2.571a.5.5,0,1,0,0,1Z" transform="translate(0.107 0.458)" fill="#4b4b4b"/>
    <path id="Path_6" data-name="Path 6" d="M11.686,13.589a.5.5,0,0,0-.5-.5H.76a.5.5,0,1,0,0,1H11.185A.5.5,0,0,0,11.686,13.589Z" transform="translate(0 0.971)" fill="#4b4b4b"/>
    <path id="Path_7" data-name="Path 7" d="M36.382,16.981l-2.814-1.143-2.021-4.914a.56.56,0,0,0-.52-.347H26.01V9.335A1.85,1.85,0,0,0,24.147,7.5H6.9A1.851,1.851,0,0,0,5.057,9.107H6.2a.734.734,0,0,1,.7-.5h17.25a.737.737,0,0,1,.744.73V23.32H16.577a3.545,3.545,0,0,0-6.993,0H6.9a.738.738,0,0,1-.742-.732V20.043H5.033v2.545A1.85,1.85,0,0,0,6.9,24.421H9.588a3.548,3.548,0,0,0,6.986,0H27.5a3.546,3.546,0,0,0,6.986-.019h1.683a.557.557,0,0,0,.561-.552V17.491A.553.553,0,0,0,36.382,16.981Zm-23.3,9.26a2.39,2.39,0,1,1,2.429-2.39A2.414,2.414,0,0,1,13.081,26.241ZM28.164,11.681h2.485l1.212,2.95h-3.7Zm2.828,14.559a2.39,2.39,0,1,1,2.429-2.39A2.414,2.414,0,0,1,30.992,26.241ZM35.608,23.3H34.486a3.545,3.545,0,0,0-6.99.02H26.012V11.68h1.031v3.5a.556.556,0,0,0,.561.552h4.713l.3.73a.561.561,0,0,0,.306.3l2.687,1.093V23.3Z" transform="translate(0.282 0)" fill="#4b4b4b"/>
    <path id="Path_8" data-name="Path 8" d="M10.375,16.538a.5.5,0,0,0-.5-.5H3.162a.5.5,0,1,0,0,1H9.876A.5.5,0,0,0,10.375,16.538Z" transform="translate(0.142 1.484)" fill="#4b4b4b"/>
  </g>
</svg>
