<svg xmlns="http://www.w3.org/2000/svg" width="21.5" height="22.699" viewBox="0 0 21.5 22.699">
  <g id="user" transform="translate(-0.5 1)">
    <path id="Path_17" data-name="Path 17" d="M11.807,10.613A5.807,5.807,0,1,0,6,4.807,5.824,5.824,0,0,0,11.807,10.613Zm0-9.678A3.871,3.871,0,1,1,7.936,4.807,3.882,3.882,0,0,1,11.807.936Z" transform="translate(-1)" fill="#655450"/>
    <path id="Path_18" data-name="Path 18" d="M11.25,12.5C5.361,12.5.5,16.327.5,20.963c0,.442.374.736.935.736s.935-.294.935-.736c0-3.827,4.02-6.991,8.88-6.991s8.88,3.164,8.88,6.991c0,.442.374.736.935.736S22,21.4,22,20.963C22,16.327,17.139,12.5,11.25,12.5Z" fill="#655450"/>
  </g>
</svg>
